<svg id="Layer_1" enable-background="new 0 0 128 128" height="512" viewBox="0 0 128 128" width="512" xmlns="http://www.w3.org/2000/svg"><g><path d="m105.151 8.758h-45.946c-4.214 0-7.642 3.428-7.642 7.642v21.296c-18.603 4.934-32.355 21.912-32.355 42.046 0 23.986 19.514 43.5 43.5 43.5s43.5-19.514 43.5-43.5c0-10.851-4.003-20.778-10.597-28.406h9.541c4.214 0 7.642-3.428 7.642-7.641v-27.296c-.001-4.213-3.429-7.641-7.643-7.641z" fill="#e6e7e8"/><g><path d="m84.317 46.336v11.17l-12.643-11.17h-16.47c-3.668 0-6.641-2.973-6.641-6.641v-5.225c-18.572 4.55-32.356 21.297-32.356 41.272 0 23.472 19.028 42.5 42.5 42.5s42.5-19.028 42.5-42.5c0-11.415-4.509-21.771-11.832-29.406z" fill="#6dc9f7"/><g><path d="m70.218 83.821c-3.128 2.581-7.138 4.131-11.51 4.131s-8.382-1.55-11.51-4.131c-7.755.281-13.96 6.639-13.96 14.462v11.483c7.098 5.322 15.916 8.476 25.47 8.476s18.372-3.154 25.47-8.476v-11.483c0-7.823-6.205-14.181-13.96-14.462z" fill="#fa759e"/><circle cx="58.708" cy="69.854" fill="#ffd7e5" r="18.098"/><path d="m58.708 55.649c9.337 0 17.019 7.072 17.99 16.152.069-.64.108-1.288.108-1.947 0-9.995-8.103-18.098-18.098-18.098s-18.098 8.103-18.098 18.098c0 .658.04 1.307.108 1.947.971-9.08 8.652-16.152 17.99-16.152z" fill="#fff"/></g><g><path d="m55.205 5.758h45.947c3.668 0 6.641 2.973 6.641 6.641v27.295c0 3.668-2.973 6.641-6.641 6.641h-16.835v11.17l-12.643-11.17h-16.47c-3.668 0-6.641-2.973-6.641-6.641v-27.295c0-3.668 2.974-6.641 6.642-6.641z" fill="#d4fbff"/></g><g><path d="m90.394 16.331c-2.994-2.994-7.847-2.994-10.841 0l-1.375 1.375-1.375-1.375c-2.994-2.994-7.847-2.994-10.841 0-2.994 2.994-2.994 7.847 0 10.841l1.375 1.375 9.138 9.138c.941.941 2.466.941 3.406 0l9.138-9.138 1.375-1.375c2.994-2.993 2.994-7.847 0-10.841z" fill="#fa759e"/><g fill="#3a2c60"><path d="m101.152 4.758h-16.278c-.553 0-1 .448-1 1s.447 1 1 1h16.277c3.11 0 5.641 2.531 5.641 5.641v27.295c0 3.11-2.53 5.641-5.641 5.641h-16.833c-.553 0-1 .448-1 1v8.952l-10.981-9.701c-.183-.162-.418-.25-.662-.25h-16.47c-3.11 0-5.641-2.531-5.641-5.641v-27.296c0-3.11 2.53-5.641 5.641-5.641h8.878c.553 0 1-.448 1-1s-.447-1-1-1h-8.878c-4.213 0-7.641 3.428-7.641 7.641v21.311c-18.601 4.936-32.356 21.899-32.356 42.031 0 23.986 19.514 43.5 43.5 43.5s43.5-19.514 43.5-43.5c0-10.851-4.005-20.778-10.6-28.406h9.544c4.213 0 7.641-3.428 7.641-7.641v-27.295c-.001-4.213-3.428-7.641-7.641-7.641zm-66.914 104.473v-10.948c0-7.159 5.611-13.017 12.664-13.447 3.253 2.569 7.349 4.116 11.807 4.116 4.457 0 8.553-1.547 11.806-4.116 7.053.43 12.664 6.288 12.664 13.447v10.948c-6.866 5.031-15.326 8.011-24.471 8.011-9.146 0-17.604-2.98-24.47-8.011zm24.47-22.279c-9.428 0-17.099-7.67-17.099-17.098s7.671-17.099 17.099-17.099 17.098 7.67 17.098 17.099c0 9.428-7.67 17.098-17.098 17.098zm41.499-11.21c0 12.83-5.854 24.317-15.029 31.935v-9.394c0-7.588-5.488-13.91-12.702-15.228 3.293-3.433 5.33-8.08 5.33-13.201 0-10.531-8.567-19.099-19.098-19.099s-19.099 8.567-19.099 19.099c0 5.121 2.037 9.768 5.33 13.201-7.214 1.317-12.702 7.639-12.702 15.228v9.395c-9.176-7.618-15.03-19.106-15.03-31.936 0-19.023 12.87-35.084 30.356-39.966v3.919c0 4.213 3.428 7.641 7.641 7.641h16.091l12.36 10.919c.187.165.423.25.662.25.14 0 .279-.029.411-.088.358-.162.589-.519.589-.912v-10.169h3.601c6.991 7.43 11.289 17.422 11.289 28.406z"/><path d="m68.541 6.758h12c.553 0 1-.448 1-1s-.447-1-1-1h-12c-.553 0-1 .448-1 1s.448 1 1 1z"/><path d="m65.254 27.879 10.514 10.513c.644.644 1.499.999 2.41.999s1.767-.354 2.41-.999l10.513-10.513c1.637-1.637 2.539-3.813 2.539-6.127 0-2.315-.902-4.491-2.539-6.128s-3.812-2.538-6.127-2.538-4.491.901-6.128 2.538l-.668.668-.668-.668c-3.378-3.378-8.876-3.379-12.256 0-3.378 3.379-3.378 8.876 0 12.255zm1.414-10.841c1.3-1.299 3.007-1.949 4.714-1.949s3.414.65 4.714 1.949l1.375 1.375c.375.375 1.039.375 1.414 0l1.375-1.375c1.259-1.259 2.934-1.952 4.714-1.952s3.454.693 4.713 1.952 1.953 2.933 1.953 4.714c0 1.78-.694 3.454-1.953 4.713l-10.513 10.513c-.533.532-1.459.532-1.992 0l-10.514-10.513c-2.598-2.599-2.598-6.828 0-9.427z"/></g></g></g></g></svg>